<?xml version="1.0" encoding="UTF-8"?>
<svg width="180px" height="60px" viewBox="0 0 180 60" version="1.1" xmlns="http://www.w3.org/2000/svg" xmlns:xlink="http://www.w3.org/1999/xlink">
    <!-- Generator: Sketch 50 (54983) - http://www.bohemiancoding.com/sketch -->
    <title>yandouad</title>
    <desc>Created with Sketch.</desc>
    <defs></defs>
    <g id="Page-1" stroke="none" stroke-width="1" fill="none" fill-rule="evenodd">
        <g id="yandouad">
            <rect id="Rectangle-14" fill="#ED2630" fill-rule="nonzero" x="0" y="0" width="180" height="60" rx="3"></rect>
            <g id="Group-3" transform="translate(25.000000, 15.000000)" fill="#FFFFFF">
                <path d="M98,30 L102.040733,30 L102.040733,9.15463918 L124.959267,9.15463918 L124.959267,30 L129,30 L129,5.19587629 L115.236253,5.19587629 L115.236253,3.95876289 L129,3.95876289 L129,0 L98,0 L98,3.95876289 L111.195519,3.95876289 L111.195519,5.19587629 L98,5.19587629 L98,30 Z M103.303462,19.5463918 L103.303462,28.7628866 L119.655804,28.7628866 L119.655804,30 L123.696538,30 L123.696538,24.8041237 L107.344196,24.8041237 L107.344196,23.5051546 L123.696538,23.5051546 L123.696538,19.5463918 L103.303462,19.5463918 Z M103.303462,18.3092784 L107.344196,18.3092784 L107.344196,10.3917526 L103.303462,10.3917526 L103.303462,18.3092784 Z M119.655804,18.3092784 L123.696538,18.3092784 L123.696538,10.3917526 L119.655804,10.3917526 L119.655804,18.3092784 Z" id="Shape"></path>
                <path d="M65,12.8041237 L65,30 L96,30 L96,29.9381443 L96,21.6494845 L91.9592668,21.6494845 L91.9592668,26.0412371 L69.0407332,26.0412371 L69.0407332,16.7628866 L96,16.7628866 L96,12.8041237 L65,12.8041237 Z M65,3.95876289 L96,3.95876289 L96,0 L65,0 L65,3.95876289 Z" id="Shape"></path>
                <path d="M0,0 L0,9.15463918 L4.0407332,9.15463918 L4.0407332,3.95876289 L16.3523422,3.95876289 L16.3523422,9.15463918 L20.3930754,9.15463918 L20.3930754,0 L0,0 Z M21.6558045,30 L31,30 L31,0 L26.9592668,0 L26.9592668,26.0412371 L21.6558045,26.0412371 L21.6558045,30 Z M5.30346232,9.15463918 L15.089613,9.15463918 L15.089613,5.19587629 L5.30346232,5.19587629 L5.30346232,9.15463918 Z M21.6558045,0 L21.6558045,24.742268 L25.6965377,24.742268 L25.6965377,0 L21.6558045,0 Z M20.3930754,30 L20.3930754,26.0412371 L3.97759674,26.0412371 L3.97759674,14.4123711 L16.4154786,14.4123711 L16.4154786,20.7835052 L5.24032587,20.7835052 L5.24032587,24.742268 L16.4154786,24.742268 L20.3930754,24.742268 L20.3930754,10.4536082 L0,10.4536082 L0,30 L20.3930754,30 Z" id="Shape"></path>
                <path d="M64,5.19587629 L58.6965377,5.19587629 L58.6965377,3.95876289 L64,3.95876289 L64,0 L33,0 L33,3.95876289 L38.3034623,3.95876289 L38.3034623,5.19587629 L33,5.19587629 L33,9.15463918 L59.9592668,9.15463918 L59.9592668,10.3917526 L37.0407332,10.3917526 L33,10.3917526 L33,19.6082474 L64,19.6082474 L64,5.19587629 Z M54.6558045,5.19587629 L42.3441955,5.19587629 L42.3441955,3.95876289 L54.6558045,3.95876289 L54.6558045,5.19587629 Z M59.9592668,15.6494845 L37.0407332,15.6494845 L37.0407332,14.3505155 L59.9592668,14.3505155 L59.9592668,15.6494845 Z M43.6069246,20.8453608 L43.6069246,24.8041237 L59.9592668,24.8041237 L59.9592668,30 L64,30 L64,20.8453608 L43.6069246,20.8453608 Z M58.6965377,30 L58.6965377,26.0412371 L42.3441955,26.0412371 L42.3441955,20.8453608 L38.3034623,20.8453608 L38.3034623,30 L58.6965377,30 Z M33,20.8453608 L33,30 L37.0407332,30 L37.0407332,20.8453608 L33,20.8453608 Z" id="Shape"></path>
            </g>
        </g>
    </g>
</svg>