<?xml version="1.0" encoding="UTF-8"?>
<svg width="180px" height="60px" viewBox="0 0 180 60" version="1.1" xmlns="http://www.w3.org/2000/svg" xmlns:xlink="http://www.w3.org/1999/xlink">
    <!-- Generator: Sketch 54.1 (76490) - https://sketchapp.com -->
    <title>NOCY</title>
    <desc>Created with Sketch.</desc>
    <defs>
        <rect id="path-1" x="0" y="0" width="180" height="60" rx="3"></rect>
        <linearGradient x1="37.1198464%" y1="50%" x2="58.3002665%" y2="15.3181052%" id="linearGradient-3">
            <stop stop-color="#1904E6" offset="0%"></stop>
            <stop stop-color="#0E67EE" offset="100%"></stop>
        </linearGradient>
        <polygon id="path-4" points="0.362666667 339 135.256103 242.871106 272 336.253318 272 0 0 0"></polygon>
        <filter x="-12.0%" y="-11.9%" width="123.8%" height="123.7%" filterUnits="objectBoundingBox" id="filter-6">
            <feOffset dx="0" dy="42" in="SourceAlpha" result="shadowOffsetOuter1"></feOffset>
            <feGaussianBlur stdDeviation="2" in="shadowOffsetOuter1" result="shadowBlurOuter1"></feGaussianBlur>
            <feColorMatrix values="0 0 0 0 0   0 0 0 0 0   0 0 0 0 0  0 0 0 0.5 0" type="matrix" in="shadowBlurOuter1" result="shadowMatrixOuter1"></feColorMatrix>
            <feMerge>
                <feMergeNode in="shadowMatrixOuter1"></feMergeNode>
                <feMergeNode in="SourceGraphic"></feMergeNode>
            </feMerge>
        </filter>
    </defs>
    <g id="页面1" stroke="none" stroke-width="1" fill="none" fill-rule="evenodd">
        <g id="NOCY">
            <g id="编组-8">
                <mask id="mask-2" fill="white">
                    <use xlink:href="#path-1"></use>
                </mask>
                <use id="蒙版" fill="#ED2630" fill-rule="nonzero" xlink:href="#path-1"></use>
                <g mask="url(#mask-2)">
                    <g transform="translate(-47.350318, -44.000000)">
                        <rect id="Mask" fill="url(#linearGradient-3)" fill-rule="nonzero" x="1.35031847" y="0" width="272" height="485"></rect>
                        <rect id="Mask" fill="" fill-rule="nonzero" transform="translate(137.350318, 242.500000) scale(-1, 1) translate(-137.350318, -242.500000) " x="1.35031847" y="0" width="272" height="485"></rect>
                        <g id="编组-7" stroke-width="1" fill="none" fill-rule="evenodd" transform="translate(0.350318, 0.000000)">
                            <mask id="mask-5" fill="white">
                                <use xlink:href="#path-4"></use>
                            </mask>
                            <g id="蒙版"></g>
                            <g filter="url(#filter-6)" opacity="0.100000001" mask="url(#mask-5)" id="椭圆形" stroke="#FFFFFF">
                                <g transform="translate(-238.997333, -133.997852)">
                                    <ellipse cx="375.178667" cy="376.686896" rx="188.405333" ry="189.162728"></ellipse>
                                    <ellipse cx="375.178667" cy="376.686896" rx="244.618667" ry="245.602041"></ellipse>
                                    <ellipse cx="375.178667" cy="376.686896" rx="306.272" ry="307.503222"></ellipse>
                                    <ellipse cx="375.178667" cy="376.686896" rx="340.725333" ry="342.095059"></ellipse>
                                    <ellipse cx="375.178667" cy="376.686896" rx="375.178667" ry="376.686896"></ellipse>
                                </g>
                            </g>
                        </g>
                    </g>
                </g>
            </g>
            <g id="编组-2" transform="translate(21.000000, 8.000000)">
                <g id="编组-3" transform="translate(0.000000, 0.928910)">
                    <g id="编组" transform="translate(0.000000, 0.334117)" opacity="0.949999988">
                        <path d="M23.5044841,0.642119234 L26.0326391,17.6353852 C26.0584454,17.8088447 25.9961182,17.983793 25.8670345,18.1002262 L1.13756754,40.4061696 C0.927105533,40.596006 0.605109594,40.5764567 0.41836948,40.3625051 C0.312297685,40.2409766 0.268472524,40.0758902 0.299999259,39.9166124 L6.84012762,6.87489866 C6.87426185,6.70244741 6.99216906,6.55939924 7.15321513,6.49505257 L22.8143987,0.23755699 C23.0762633,0.13292783 23.3719818,0.263912164 23.4749044,0.530118688 C23.4888578,0.566208736 23.4987799,0.60377771 23.5044841,0.642119234 Z" id="三角形" fill="#FFFFFF"></path>
                        <path d="M17.2519926,40.7901346 L14.7238376,23.7968686 C14.6980313,23.6234091 14.7603585,23.4484609 14.8894422,23.3320276 L39.6189091,1.02608427 C39.8293712,0.836247846 40.1513671,0.855797096 40.3381072,1.06974874 C40.444179,1.19127718 40.4880042,1.35636363 40.4564774,1.51564145 L33.9163491,34.5573552 C33.8822148,34.7298064 33.7643076,34.8728546 33.6032616,34.9372013 L17.9420779,41.1946968 C17.6802134,41.299326 17.3844949,41.1683417 17.2815723,40.9021351 C17.2676189,40.8660451 17.2576968,40.8284761 17.2519926,40.7901346 Z" id="三角形" fill="#F44336"></path>
                    </g>
                    <path d="M125.129534,22.9035911 C125.129534,22.5903492 125.354804,22.349394 125.662674,22.349394 C125.963035,22.349394 126.188306,22.5903492 126.188306,22.9035911 L126.188306,22.9839095 C126.188306,23.2971513 125.963035,23.5381065 125.662674,23.5381065 C125.354804,23.5381065 125.129534,23.2971513 125.129534,22.9839095 L125.129534,22.9035911 Z M129.785128,23.5943294 C128.253287,23.5943294 127.111916,22.3172666 127.111916,20.7028665 L127.111916,20.6868028 C127.111916,19.0884664 128.23076,17.7792763 129.822673,17.7792763 C130.633648,17.7792763 131.166789,18.0362952 131.624839,18.4137917 C131.722456,18.4941101 131.805056,18.6306514 131.805056,18.807352 C131.805056,19.0804346 131.602312,19.2892624 131.347005,19.2892624 C131.219352,19.2892624 131.129243,19.2410714 131.069171,19.1928803 C130.708738,18.8796385 130.318269,18.6868743 129.815164,18.6868743 C128.816464,18.6868743 128.08058,19.5703769 128.08058,20.6707392 L128.08058,20.6868028 C128.08058,21.7871651 128.808955,22.6786995 129.815164,22.6786995 C130.370832,22.6786995 130.746283,22.4859353 131.129243,22.1405661 C131.196825,22.0763114 131.294442,22.0281204 131.407077,22.0281204 C131.639857,22.0281204 131.842601,22.2369482 131.842601,22.4859353 C131.842601,22.6385403 131.775019,22.7590179 131.69242,22.8393363 C131.196825,23.3051831 130.633648,23.5943294 129.785128,23.5943294 Z M135.394369,23.5943294 C133.779929,23.5943294 132.653575,22.2851393 132.653575,20.7028665 L132.653575,20.6868028 C132.653575,19.1045301 133.794947,17.7792763 135.409387,17.7792763 C137.023827,17.7792763 138.15018,19.0884664 138.15018,20.6707392 L138.15018,20.6868028 C138.15018,22.2690756 137.008809,23.5943294 135.394369,23.5943294 Z M135.409387,22.6786995 C136.453141,22.6786995 137.181516,21.795197 137.181516,20.7028665 L137.181516,20.6868028 C137.181516,19.5944724 136.438123,18.6868743 135.394369,18.6868743 C134.350615,18.6868743 133.622239,19.5784087 133.622239,20.6707392 L133.622239,20.6868028 C133.622239,21.7791333 134.365633,22.6786995 135.409387,22.6786995 Z M139.269025,23.0561961 L139.269025,18.3415052 C139.269025,18.0684225 139.471769,17.843531 139.734584,17.843531 L139.832202,17.843531 C140.034945,17.843531 140.170108,17.9559768 140.260216,18.1085818 L141.852129,20.7751531 L143.451551,18.1005499 C143.549168,17.9318812 143.684331,17.843531 143.872056,17.843531 L143.969674,17.843531 C144.23249,17.843531 144.435233,18.0684225 144.435233,18.3415052 L144.435233,23.0481642 C144.435233,23.3212468 144.23249,23.5381065 143.969674,23.5381065 C143.721876,23.5381065 143.511623,23.313215 143.511623,23.0481642 L143.511623,19.6747908 L142.22758,21.7389741 C142.129963,21.8996109 142.009819,21.995993 141.837111,21.995993 C141.671913,21.995993 141.551768,21.8996109 141.454151,21.7389741 L140.177617,19.6908545 L140.177617,23.0561961 C140.177617,23.3292787 139.974873,23.5381065 139.719566,23.5381065 C139.46426,23.5381065 139.269025,23.3292787 139.269025,23.0561961 Z" id=".COM" fill="#FFFFFF" fill-rule="nonzero" transform="translate(134.782383, 20.686803) rotate(-90.000000) translate(-134.782383, -20.686803) "></path>
                    <path d="M47.1917098,30.2969011 L47.1917098,12.5866908 C47.1917098,11.9963505 47.69026,11.4903444 48.2719019,11.4903444 L48.5765714,11.4903444 C49.0751216,11.4903444 49.3797912,11.7433474 49.6844607,12.1369077 L61.4557843,27.3733108 L61.4557843,12.5304679 C61.4557843,11.9401276 61.9266372,11.4341216 62.5359763,11.4341216 C63.1176182,11.4341216 63.5884711,11.9401276 63.5884711,12.5304679 L63.5884711,30.2969011 C63.5884711,30.8872414 63.1730126,31.3370245 62.5913708,31.3370245 L62.4805818,31.3370245 C62.0097289,31.3370245 61.6773621,31.0559101 61.3449953,30.6623499 L49.3243967,15.0604979 L49.3243967,30.2969011 C49.3243967,30.8872414 48.8535438,31.3932474 48.2442047,31.3932474 C47.6625628,31.3932474 47.1917098,30.8872414 47.1917098,30.2969011 Z M78.0741234,31.5900275 C72.174613,31.5900275 68.2139088,26.8954162 68.2139088,21.4699074 L68.2139088,21.4136845 C68.2139088,15.9881756 72.2300074,11.2373414 78.1295178,11.2373414 C84.0290282,11.2373414 87.9897324,15.9319527 87.9897324,21.3574616 L87.9897324,21.4136845 C87.9897324,26.8391933 83.9736338,31.5900275 78.0741234,31.5900275 Z M78.1295178,29.5378921 C82.5610749,29.5378921 85.7185594,25.9396271 85.7185594,21.4699074 L85.7185594,21.4136845 C85.7185594,16.9439647 82.5056805,13.2894769 78.0741234,13.2894769 C73.6425663,13.2894769 70.4850818,16.8877419 70.4850818,21.3574616 L70.4850818,21.4136845 C70.4850818,25.8834042 73.6979607,29.5378921 78.1295178,29.5378921 Z M101.478284,31.5900275 C95.8834435,31.5900275 91.7565559,27.1203078 91.7565559,21.4699074 L91.7565559,21.4136845 C91.7565559,15.8476184 95.8557462,11.2373414 101.561376,11.2373414 C104.691163,11.2373414 106.685364,12.2774649 108.485684,13.7954829 C108.707262,13.992263 108.92884,14.3014889 108.92884,14.6950492 C108.92884,15.2853895 108.402592,15.7913955 107.82095,15.7913955 C107.516281,15.7913955 107.267006,15.6508383 107.100822,15.5383925 C105.605172,14.1890432 103.915641,13.2894769 101.533679,13.2894769 C97.2406078,13.2894769 94.0277289,16.831519 94.0277289,21.3574616 L94.0277289,21.4136845 C94.0277289,25.9677386 97.268305,29.5378921 101.533679,29.5378921 C103.943338,29.5378921 105.632869,28.6945487 107.294703,27.1484192 C107.460886,26.9797506 107.710161,26.8391933 107.987134,26.8391933 C108.541078,26.8391933 109.039629,27.3451994 109.039629,27.9074283 C109.039629,28.2447656 108.873445,28.52588 108.679565,28.6945487 C106.768456,30.4655697 104.663466,31.5900275 101.478284,31.5900275 Z M119.010632,30.2687896 L119.010632,23.5220429 L111.809352,13.2894769 C111.670866,13.0645854 111.560077,12.8115824 111.560077,12.5304679 C111.560077,11.9401276 112.086324,11.4341216 112.695663,11.4341216 C113.166516,11.4341216 113.471186,11.715236 113.748158,12.1087962 L120.146219,21.4699074 L126.599674,12.1087962 C126.876646,11.715236 127.153618,11.4341216 127.624471,11.4341216 C128.23381,11.4341216 128.704663,11.9401276 128.704663,12.5304679 C128.704663,12.8115824 128.53848,13.1208082 128.399994,13.3456998 L121.226411,23.46582 L121.226411,30.2687896 C121.226411,30.8872414 120.72786,31.3932474 120.118521,31.3932474 C119.509182,31.3932474 119.010632,30.8872414 119.010632,30.2687896 Z" id="NOCY" fill="#FFFFFF" fill-rule="nonzero"></path>
                </g>
            </g>
        </g>
    </g>
</svg>