<?xml version="1.0" encoding="UTF-8"?>
<svg width="180px" height="60px" viewBox="0 0 180 60" version="1.1" xmlns="http://www.w3.org/2000/svg" xmlns:xlink="http://www.w3.org/1999/xlink">
    <!-- Generator: Sketch 49.3 (51167) - http://www.bohemiancoding.com/sketch -->
    <title>Group 4</title>
    <desc>Created with Sketch.</desc>
    <defs></defs>
    <g id="Page-1" stroke="none" stroke-width="1" fill="none" fill-rule="evenodd">
        <g id="Group-4">
            <rect id="Rectangle-14" fill="#444444" x="0" y="0" width="180" height="60" rx="30"></rect>
            <g id="Group-6" transform="translate(12.000000, 10.000000)">
                <g id="Group-7" transform="translate(6.244953, 14.697174)"></g>
                <g id="烟斗-[转换]" transform="translate(3.499327, 2.799462)">
                    <g id="Group"></g>
                </g>
                <circle id="Oval" fill="#FFFFFF" cx="20" cy="20" r="20"></circle>
                <polygon id="Shape" fill="#444444" transform="translate(15.397039, 20.484522) rotate(1.000000) translate(-15.397039, -20.484522) " points="6.3526245 20.6663574 10.3007567 26.1103634 12.3703749 26.0912757 15.9434142 23.4601903 24.4414536 15.0435301 24.2452668 14.858681 14.4135638 20.6683667 11.5185379 17.6334263"></polygon>
                <polygon id="Shape" fill="#444444" transform="translate(24.538261, 20.480005) scale(-1, 1) rotate(1.000000) translate(-24.538261, -20.480005) " points="15.493846 20.66184 19.4419782 26.1058459 21.5115964 26.0867583 25.0846357 23.4556729 33.5826751 15.0390126 33.3864883 14.8541636 23.5547853 20.6638492 20.6597594 17.6289088"></polygon>
                <polygon id="Shape" fill="#444444" points="8.54525632 15.255658 9.18461334 14.1770712 7.23683236 13.0224606 5.42571691 10.4946712 4.81488138 11.5245553 5.78936608 12.8573465 4.14819125 12.6494691 3.51121101 13.7209287 6.59747533 14.1010474"></polygon>
                <path d="M9.51974101,10.7013607 L8.14357848,8.76750681 L9.9927226,10.2511576 L9.51974101,10.7013607 Z M9.75266662,13.129369 L10.6463404,12.2776655 L10.0842291,11.4532831 L10.7544844,10.8153963 L11.5518981,11.4140833 L12.4622094,10.5481254 L8.11743377,7.65803534 L7.09422484,8.63208953 L9.75266662,13.129369 Z" id="Shape" fill="#444444"></path>
                <polygon id="Shape" fill="#444444" points="12.5453971 10.4744774 13.6078231 9.9090508 12.0973719 7.42758837 14.3374982 9.51824126 15.4605324 8.9195543 13.0112483 4.32962092 11.93575 4.90336259 13.4973023 7.47866683 11.2060749 5.29298426 10.096113 5.884544"></polygon>
                <path d="M16.7867823,7.57963586 L16.059484,4.26191227 C16.0891939,4.25478505 16.1189038,4.24884569 16.1462369,4.24409421 C16.1747584,4.23815485 16.2044683,4.23102763 16.2341782,4.2239004 C16.3767857,4.19776724 16.515828,4.20133085 16.6501168,4.2322155 C16.7832171,4.26428801 16.8723468,4.37713575 16.9175059,4.57194659 L17.4261394,6.88354348 C17.4784288,7.12111767 17.4392117,7.28385599 17.3132417,7.37294631 C17.184895,7.46203663 17.0102008,7.53093315 16.7867823,7.57963586 Z M15.7754574,8.80789443 L17.4404001,8.44203017 C17.9977578,8.31967946 18.3697258,8.12130501 18.5586807,7.84453108 C18.7476357,7.56775715 18.8023019,7.24109263 18.7203026,6.86453754 L18.1201626,4.13956156 C18.0167722,3.67035253 17.812368,3.39239073 17.5057619,3.30448828 C17.1991557,3.2177737 16.7142902,3.24747047 16.0499768,3.39239073 L14.6512348,3.70004931 L15.7754574,8.80789443 Z" id="Shape" fill="#444444"></path>
                <path d="M20.6906631,4.16569472 C20.6977934,4.02433808 20.7488945,3.92099331 20.8415894,3.8556604 C20.9342842,3.79151537 21.0364863,3.7618186 21.1458187,3.76657008 C21.1493839,3.76657008 21.1529491,3.76894582 21.1565143,3.76894582 L21.1683982,3.76894582 C21.2706003,3.77963666 21.3632952,3.82121215 21.4488597,3.89486015 C21.5320474,3.96969602 21.5712645,4.07541653 21.5641341,4.21202169 L21.4203382,6.82890141 C21.410831,6.97382167 21.3609184,7.07954218 21.2706003,7.14725083 C21.1779054,7.2137716 21.0804569,7.24703199 20.9782549,7.24703199 L20.9675593,7.24703199 C20.9639941,7.24703199 20.960429,7.24465625 20.9568638,7.24465625 C20.8463429,7.23990476 20.7488945,7.19714141 20.66333,7.11755405 C20.5777655,7.03915457 20.5385484,6.9274947 20.5480556,6.78257444 L20.6906631,4.16569472 Z M19.3192541,6.42502529 C19.2942978,6.85503457 19.3893695,7.24346838 19.6032808,7.58795095 C19.8160036,7.93599714 20.2378842,8.12486863 20.8677341,8.16050476 C21.4833232,8.19376514 21.9372904,8.06903869 22.2225055,7.78870115 C22.5089089,7.50717573 22.6669656,7.11280257 22.6942987,6.60795741 L22.8190802,4.3343724 C22.845225,3.8639755 22.7275738,3.51474144 22.4685034,3.2914217 C22.2082447,3.06928983 21.9158993,2.92555744 21.5890904,2.86260028 L21.4001355,2.83527925 C21.3371505,2.82815203 21.2741655,2.82221267 21.2123689,2.81864906 C20.7429525,2.7925159 20.3377095,2.87923048 19.9966398,3.07641706 C19.6543818,3.27360363 19.4713688,3.63115279 19.4428473,4.15144027 L19.3192541,6.42502529 Z" id="Shape" fill="#444444"></path>
                <path d="M24.484023,3.3650697 L23.250468,6.98926399 C23.0852809,7.47629108 23.1054837,7.87303998 23.3122646,8.18426217 C23.5178571,8.49429649 23.8969554,8.7437494 24.4483711,8.93143301 C24.9094687,9.0870441 25.312335,9.1036743 25.6557814,8.97894784 C25.9992278,8.85303352 26.2713705,8.49667224 26.4722094,7.90867611 L27.6510982,4.43890504 L26.4496299,4.03265318 L25.2006258,7.70792592 C25.1519015,7.85047044 25.078221,7.94906372 24.9772073,8.00133005 C24.8773821,8.05478424 24.781122,8.07141443 24.6896155,8.05122063 C24.6824851,8.05478424 24.6753547,8.05478424 24.6658476,8.05122063 L24.6361377,8.04052979 C24.6301957,8.04052979 24.6266305,8.03815405 24.6254421,8.03815405 C24.6206885,8.03815405 24.6171233,8.0357783 24.6135581,8.03221469 C24.5268052,7.9989543 24.4578783,7.93243353 24.409154,7.83384024 C24.3616182,7.73524695 24.358053,7.62239921 24.4020237,7.49410915 L25.6700422,3.76775795 L24.484023,3.3650697 Z" id="Shape" fill="#444444"></path>
                <polygon id="Shape" fill="#444444" points="26.5411364 9.73205803 27.5275051 10.3343086 28.1514129 9.3163032 27.1650443 8.71286475"></polygon>
                <path d="M31.1521127,10.5588162 L30.6458561,11.076728 C30.5341468,11.1919514 30.417684,11.251345 30.2964676,11.2584722 C30.1740629,11.2620358 30.0742376,11.2323391 29.9922383,11.168194 C29.9851079,11.168194 29.9767891,11.1646304 29.9696588,11.1563153 C29.9625284,11.1491881 29.955398,11.1420609 29.9470792,11.1361215 C29.943514,11.1325579 29.9387605,11.1266185 29.9328185,11.1230549 C29.9268765,11.1159277 29.9233113,11.1123641 29.9197461,11.1088005 C29.8567611,11.030401 29.8234861,10.9377471 29.8199209,10.8296508 C29.8151673,10.7203667 29.8543843,10.6241491 29.9387605,10.5386224 L31.8580199,8.57269598 C31.9435845,8.48360566 32.0362793,8.44559378 32.137293,8.45628462 C32.2371183,8.46697546 32.326248,8.50261159 32.4046821,8.56438088 L32.416566,8.57863533 L32.4320152,8.59170191 L32.4450876,8.60476849 L32.4593483,8.61783507 C32.5187681,8.69148307 32.55442,8.77582191 32.5698691,8.86847585 C32.5841299,8.96112978 32.5567968,9.04309288 32.4878698,9.11317726 L32.0184534,9.594265 L32.9691702,10.5196165 L33.2864719,10.1953277 C33.6524979,9.81996048 33.8129313,9.43390242 33.7689607,9.03715352 C33.7238016,8.64040462 33.5182091,8.25909804 33.1509948,7.89917314 C32.6958391,7.45728515 32.2763353,7.25178347 31.891295,7.28266812 C31.5074431,7.31711637 31.1711271,7.4798547 30.8835353,7.77444669 L29.2673167,9.42915094 C28.8513782,9.85559661 28.6517276,10.2606606 28.6695536,10.6384036 C28.6885679,11.0173344 28.9060444,11.4105197 29.3231714,11.8191473 C29.379026,11.8726015 29.4408226,11.9284314 29.5097495,11.9866371 C29.5774881,12.0400913 29.6499802,12.0923576 29.7284144,12.1386846 C29.9851079,12.3014229 30.2726997,12.3964526 30.5923782,12.4261494 C30.90968,12.4522825 31.206779,12.3263682 31.4812984,12.0436549 L32.0648008,11.4485316 L31.1521127,10.5588162 Z" id="Shape" fill="#444444"></path>
                <path d="M34.8218795,12.2420294 C34.9252699,12.1826358 35.0250952,12.1790722 35.1225437,12.226587 C35.2188037,12.2764776 35.2948611,12.3489378 35.3507157,12.4439674 C35.3519041,12.447531 35.3542809,12.4510947 35.3566577,12.4534704 C35.3566577,12.457034 35.3578461,12.4605976 35.3614112,12.4641612 C35.4101355,12.5568152 35.432715,12.6577842 35.426773,12.7635047 C35.420831,12.8692252 35.3673532,12.9511883 35.267528,13.0082061 L32.971547,14.3421852 C32.8432002,14.4146453 32.7267374,14.4312755 32.6185934,14.3932637 C32.5116377,14.3516882 32.4272616,14.288731 32.3725954,14.1996407 C32.3678418,14.1937013 32.3666534,14.1901377 32.3666534,14.1889499 L32.3607114,14.1794469 C32.3048568,14.0832294 32.2870309,13.9775088 32.3048568,13.8622854 C32.3238712,13.7434983 32.3975517,13.6484686 32.5258985,13.5760085 L34.8218795,12.2420294 Z M32.1396698,12.3418105 C31.7629483,12.5603788 31.486052,12.8573465 31.3101694,13.230338 C31.1330984,13.6045174 31.2055906,14.0665992 31.5276459,14.6177713 C31.8413824,15.1594404 32.1979012,15.4730384 32.5972022,15.5585651 C32.9941265,15.6440918 33.4160071,15.5561893 33.8592787,15.3007971 L35.8593492,14.1402472 C36.2123028,13.9323697 36.3976925,13.6650988 36.4167069,13.34081 C36.4345328,13.0117697 36.3774898,12.6946082 36.2479546,12.3845739 C36.2182447,12.3287439 36.1897232,12.2717261 36.1600133,12.2123326 L36.0708836,12.042467 C35.832016,11.6326516 35.546801,11.3297445 35.2188037,11.1349336 C34.8884297,10.9401228 34.5295341,10.9555651 34.1397402,11.1812606 L32.1396698,12.3418105 Z" id="Shape" fill="#444444"></path>
                <path d="M11.3986541,30.4258412 L11.3986541,30.8069987 L10.894751,30.8069987 L10.894751,32.7321669 L10.4296097,32.7321669 L10.4296097,30.8069987 L9.92570659,30.8069987 L9.92570659,30.4258412 L11.3986541,30.4258412 Z M12.1367429,31.579004 C12.1367429,31.7340519 12.1405114,31.8659483 12.1480485,31.9746972 C12.1555855,32.083446 12.1706594,32.1717359 12.1932705,32.2395693 C12.2158817,32.3074028 12.2481828,32.3569312 12.290175,32.3881561 C12.3321671,32.419381 12.3876174,32.4349933 12.4565276,32.4349933 C12.5254378,32.4349933 12.5808881,32.419381 12.6228802,32.3881561 C12.6648723,32.3569312 12.6971735,32.3074028 12.7197847,32.2395693 C12.7423958,32.1717359 12.7574697,32.083446 12.7650067,31.9746972 C12.7725438,31.8659483 12.7763122,31.7340519 12.7763122,31.579004 C12.7763122,31.4239562 12.7725438,31.2925981 12.7650067,31.184926 C12.7574697,31.0772538 12.7423958,30.988964 12.7197847,30.9200538 C12.6971735,30.8511437 12.6648723,30.8010769 12.6228802,30.769852 C12.5808881,30.738627 12.5254378,30.7230148 12.4565276,30.7230148 C12.3876174,30.7230148 12.3321671,30.738627 12.290175,30.769852 C12.2481828,30.8010769 12.2158817,30.8511437 12.1932705,30.9200538 C12.1706594,30.988964 12.1555855,31.0772538 12.1480485,31.184926 C12.1405114,31.2925981 12.1367429,31.4239562 12.1367429,31.579004 Z M11.6716016,31.579004 C11.6716016,31.4045752 11.6796769,31.2436077 11.6958277,31.0960969 C11.7119785,30.9485861 11.7475098,30.8220732 11.8024226,30.7165545 C11.8573354,30.6110358 11.9364732,30.5286679 12.0398385,30.4694482 C12.1432037,30.4102285 12.2820987,30.3806191 12.4565276,30.3806191 C12.6309565,30.3806191 12.7698514,30.4102285 12.8732167,30.4694482 C12.9765819,30.5286679 13.0557198,30.6110358 13.1106326,30.7165545 C13.1655454,30.8220732 13.2010766,30.9485861 13.2172275,31.0960969 C13.2333783,31.2436077 13.2414536,31.4045752 13.2414536,31.579004 C13.2414536,31.7555863 13.2333783,31.9170921 13.2172275,32.0635262 C13.2010766,32.2099604 13.1655454,32.3359349 13.1106326,32.4414536 C13.0557198,32.5469723 12.9765819,32.6277252 12.8732167,32.6837147 C12.7698514,32.7397042 12.6309565,32.7676985 12.4565276,32.7676985 C12.2820987,32.7676985 12.1432037,32.7397042 12.0398385,32.6837147 C11.9364732,32.6277252 11.8573354,32.5469723 11.8024226,32.4414536 C11.7475098,32.3359349 11.7119785,32.2099604 11.6958277,32.0635262 C11.6796769,31.9170921 11.6716016,31.7555863 11.6716016,31.579004 Z M14.102288,32.3897712 L14.2831763,32.3897712 C14.3951553,32.3897712 14.4855986,32.365007 14.5545087,32.3154778 C14.6234189,32.2659486 14.6578735,32.1744287 14.6578735,32.0409152 C14.6578735,31.9741585 14.6487215,31.9187082 14.6304172,31.8745626 C14.612113,31.830417 14.5873487,31.7948857 14.5561238,31.7679677 C14.5248989,31.7410497 14.4877526,31.7222073 14.4446837,31.7114401 C14.4016149,31.7006729 14.3542398,31.6952894 14.3025572,31.6952894 L14.102288,31.6952894 L14.102288,32.3897712 Z M14.102288,31.3722746 L14.2347241,31.3722746 C14.3639307,31.3722746 14.4581424,31.3491254 14.517362,31.3028264 C14.5765817,31.2565274 14.6061911,31.1784662 14.6061911,31.0686406 C14.6061911,30.9588151 14.5792735,30.8812923 14.5254374,30.83607 C14.4716013,30.7908477 14.3865416,30.7682369 14.2702557,30.7682369 L14.102288,30.7682369 L14.102288,31.3722746 Z M13.6371467,30.4258412 L14.4156124,30.4258412 C14.5103639,30.4258412 14.5981153,30.4355315 14.6788694,30.4549125 C14.7596236,30.4742935 14.829071,30.5065947 14.887214,30.551817 C14.945357,30.5970393 14.9905786,30.6573348 15.0228802,30.7327052 C15.0551819,30.8080757 15.0713324,30.9006724 15.0713324,31.010498 C15.0713324,31.1353977 15.0422614,31.2425298 14.9841184,31.3318977 C14.9259755,31.4212656 14.8387624,31.4820994 14.7224764,31.5144011 L14.7224764,31.5208614 C14.851683,31.5380889 14.95397,31.5930009 15.0293405,31.6855989 C15.104711,31.778197 15.1423957,31.9020181 15.1423957,32.0570659 C15.1423957,32.1475105 15.1305519,32.233647 15.1068641,32.3154778 C15.0831762,32.3973086 15.0427997,32.4689095 14.9857335,32.5302826 C14.9286673,32.5916558 14.8543746,32.6406458 14.7628533,32.6772544 C14.671332,32.7138629 14.5577396,32.7321669 14.4220727,32.7321669 L13.6371467,32.7321669 L13.6371467,30.4258412 Z M16.5168237,31.8632571 L16.2939435,30.8263795 L16.2874832,30.8263795 L16.064603,31.8632571 L16.5168237,31.8632571 Z M16.5781965,30.4258412 L17.1886945,32.7321669 L16.7041723,32.7321669 L16.5975774,32.2444145 L15.9838493,32.2444145 L15.8772544,32.7321669 L15.3927322,32.7321669 L16.0032301,30.4258412 L16.5781965,30.4258412 Z M18.4565276,31.2043069 C18.4565276,31.0363383 18.4366085,30.9141323 18.3967699,30.8376851 C18.3569312,30.7612378 18.2842536,30.7230148 18.1787349,30.7230148 C18.1205919,30.7230148 18.0726785,30.738627 18.0349933,30.769852 C17.997308,30.8010769 17.9676986,30.851682 17.9461642,30.9216689 C17.9246298,30.9916558 17.9095559,31.0831757 17.9009421,31.1962315 C17.8923284,31.3092872 17.8880215,31.4476439 17.8880215,31.6113055 C17.8880215,31.7857344 17.8939434,31.9267828 17.9057873,32.0344549 C17.9176313,32.1421271 17.9359353,32.2255717 17.9606999,32.2847914 C17.9854645,32.3440111 18.0166889,32.3838492 18.0543742,32.4043069 C18.0920594,32.4247646 18.135666,32.4349933 18.1851952,32.4349933 C18.2261106,32.4349933 18.2643336,32.4279947 18.2998654,32.4139973 C18.3353972,32.3999999 18.3660833,32.3720056 18.3919246,32.3300135 C18.4177659,32.2880213 18.4382233,32.2288025 18.4532974,32.1523553 C18.4683715,32.0759081 18.4759085,31.9752362 18.4759085,31.8503365 L18.9410498,31.8503365 C18.9410498,31.9752362 18.9313595,32.0936737 18.9119785,32.2056528 C18.8925975,32.3176318 18.8565279,32.415612 18.8037685,32.4995962 C18.7510092,32.5835805 18.6767165,32.6492595 18.5808883,32.6966353 C18.4850601,32.744011 18.3607006,32.7676985 18.2078062,32.7676985 C18.0333773,32.7676985 17.8944823,32.7397042 17.7911171,32.6837147 C17.6877518,32.6277252 17.608614,32.5469723 17.5537012,32.4414536 C17.4987884,32.3359349 17.4632571,32.2099604 17.4471063,32.0635262 C17.4309555,31.9170921 17.4228802,31.7555863 17.4228802,31.579004 C17.4228802,31.4045752 17.4309555,31.2436077 17.4471063,31.0960969 C17.4632571,30.9485861 17.4987884,30.8220732 17.5537012,30.7165545 C17.608614,30.6110358 17.6877518,30.5286679 17.7911171,30.4694482 C17.8944823,30.4102285 18.0333773,30.3806191 18.2078062,30.3806191 C18.3736213,30.3806191 18.504441,30.4075367 18.6002692,30.4613728 C18.6960974,30.5152089 18.7676983,30.5835797 18.815074,30.6664872 C18.8624498,30.7493948 18.8920592,30.8387613 18.9039031,30.9345895 C18.915747,31.0304177 18.9216689,31.1203226 18.9216689,31.2043069 L18.4565276,31.2043069 Z M20.3122476,31.2043069 C20.3122476,31.0363383 20.2923286,30.9141323 20.2524899,30.8376851 C20.2126512,30.7612378 20.1399736,30.7230148 20.0344549,30.7230148 C19.976312,30.7230148 19.9283986,30.738627 19.8907133,30.769852 C19.8530281,30.8010769 19.8234187,30.851682 19.8018843,30.9216689 C19.7803498,30.9916558 19.765276,31.0831757 19.7566622,31.1962315 C19.7480484,31.3092872 19.7437416,31.4476439 19.7437416,31.6113055 C19.7437416,31.7857344 19.7496635,31.9267828 19.7615074,32.0344549 C19.7733513,32.1421271 19.7916553,32.2255717 19.8164199,32.2847914 C19.8411845,32.3440111 19.872409,32.3838492 19.9100942,32.4043069 C19.9477795,32.4247646 19.991386,32.4349933 20.0409152,32.4349933 C20.0818306,32.4349933 20.1200537,32.4279947 20.1555855,32.4139973 C20.1911173,32.3999999 20.2218034,32.3720056 20.2476447,32.3300135 C20.273486,32.2880213 20.2939434,32.2288025 20.3090175,32.1523553 C20.3240916,32.0759081 20.3316285,31.9752362 20.3316285,31.8503365 L20.7967699,31.8503365 C20.7967699,31.9752362 20.7870795,32.0936737 20.7676985,32.2056528 C20.7483175,32.3176318 20.7122479,32.415612 20.6594886,32.4995962 C20.6067292,32.5835805 20.5324365,32.6492595 20.4366083,32.6966353 C20.3407801,32.744011 20.2164207,32.7676985 20.0635262,32.7676985 C19.8890974,32.7676985 19.7502024,32.7397042 19.6468371,32.6837147 C19.5434719,32.6277252 19.4643341,32.5469723 19.4094213,32.4414536 C19.3545085,32.3359349 19.3189772,32.2099604 19.3028264,32.0635262 C19.2866756,31.9170921 19.2786003,31.7555863 19.2786003,31.579004 C19.2786003,31.4045752 19.2866756,31.2436077 19.3028264,31.0960969 C19.3189772,30.9485861 19.3545085,30.8220732 19.4094213,30.7165545 C19.4643341,30.6110358 19.5434719,30.5286679 19.6468371,30.4694482 C19.7502024,30.4102285 19.8890974,30.3806191 20.0635262,30.3806191 C20.2293413,30.3806191 20.360161,30.4075367 20.4559892,30.4613728 C20.5518174,30.5152089 20.6234183,30.5835797 20.6707941,30.6664872 C20.7181698,30.7493948 20.7477792,30.8387613 20.7596231,30.9345895 C20.7714671,31.0304177 20.777389,31.1203226 20.777389,31.2043069 L20.3122476,31.2043069 Z M21.5994616,31.579004 C21.5994616,31.7340519 21.6032301,31.8659483 21.6107672,31.9746972 C21.6183042,32.083446 21.6333781,32.1717359 21.6559892,32.2395693 C21.6786004,32.3074028 21.7109015,32.3569312 21.7528937,32.3881561 C21.7948858,32.419381 21.8503361,32.4349933 21.9192463,32.4349933 C21.9881565,32.4349933 22.0436068,32.419381 22.0855989,32.3881561 C22.1275911,32.3569312 22.1598922,32.3074028 22.1825034,32.2395693 C22.2051145,32.1717359 22.2201884,32.083446 22.2277254,31.9746972 C22.2352625,31.8659483 22.239031,31.7340519 22.239031,31.579004 C22.239031,31.4239562 22.2352625,31.2925981 22.2277254,31.184926 C22.2201884,31.0772538 22.2051145,30.988964 22.1825034,30.9200538 C22.1598922,30.8511437 22.1275911,30.8010769 22.0855989,30.769852 C22.0436068,30.738627 21.9881565,30.7230148 21.9192463,30.7230148 C21.8503361,30.7230148 21.7948858,30.738627 21.7528937,30.769852 C21.7109015,30.8010769 21.6786004,30.8511437 21.6559892,30.9200538 C21.6333781,30.988964 21.6183042,31.0772538 21.6107672,31.184926 C21.6032301,31.2925981 21.5994616,31.4239562 21.5994616,31.579004 Z M21.1343203,31.579004 C21.1343203,31.4045752 21.1423956,31.2436077 21.1585464,31.0960969 C21.1746973,30.9485861 21.2102285,30.8220732 21.2651413,30.7165545 C21.3200541,30.6110358 21.3991919,30.5286679 21.5025572,30.4694482 C21.6059225,30.4102285 21.7448174,30.3806191 21.9192463,30.3806191 C22.0936752,30.3806191 22.2325701,30.4102285 22.3359354,30.4694482 C22.4393007,30.5286679 22.5184385,30.6110358 22.5733513,30.7165545 C22.6282641,30.8220732 22.6637953,30.9485861 22.6799462,31.0960969 C22.696097,31.2436077 22.7041723,31.4045752 22.7041723,31.579004 C22.7041723,31.7555863 22.696097,31.9170921 22.6799462,32.0635262 C22.6637953,32.2099604 22.6282641,32.3359349 22.5733513,32.4414536 C22.5184385,32.5469723 22.4393007,32.6277252 22.3359354,32.6837147 C22.2325701,32.7397042 22.0936752,32.7676985 21.9192463,32.7676985 C21.7448174,32.7676985 21.6059225,32.7397042 21.5025572,32.6837147 C21.3991919,32.6277252 21.3200541,32.5469723 21.2651413,32.4414536 C21.2102285,32.3359349 21.1746973,32.2099604 21.1585464,32.0635262 C21.1423956,31.9170921 21.1343203,31.7555863 21.1343203,31.579004 Z M24.4613728,31.469179 L24.6681023,31.469179 C24.7607003,31.469179 24.8355313,31.4411847 24.8925976,31.3851952 C24.9496638,31.3292056 24.9781965,31.2419925 24.9781965,31.1235532 C24.9781965,31.0072673 24.9534323,30.9189774 24.9039031,30.858681 C24.8543739,30.7983846 24.7714676,30.7682369 24.6551817,30.7682369 L24.4613728,30.7682369 L24.4613728,31.469179 Z M23.9962315,30.4258412 L24.8102288,30.4258412 C24.9286682,30.4258412 25.0282634,30.4457602 25.1090175,30.4855989 C25.1897716,30.5254376 25.2549123,30.5776578 25.3044415,30.6422611 C25.3539706,30.7068644 25.3895019,30.7806187 25.4110363,30.8635262 C25.4325708,30.9464338 25.4433378,31.0309552 25.4433378,31.1170929 C25.4433378,31.2355322 25.4255722,31.3388959 25.3900404,31.4271871 C25.3545086,31.5154782 25.3049801,31.5876175 25.2414536,31.643607 C25.177927,31.6995965 25.1009426,31.741588 25.010498,31.7695828 C24.9200534,31.7975775 24.8199198,31.8115747 24.7100942,31.8115747 L24.4613728,31.8115747 L24.4613728,32.7321669 L23.9962315,32.7321669 L23.9962315,30.4258412 Z M25.8164199,32.7321669 L25.8164199,30.4258412 L26.2815612,30.4258412 L26.2815612,32.7321669 L25.8164199,32.7321669 Z M27.213459,31.469179 L27.4201884,31.469179 C27.5127865,31.469179 27.5876175,31.4411847 27.6446837,31.3851952 C27.7017499,31.3292056 27.7302826,31.2419925 27.7302826,31.1235532 C27.7302826,31.0072673 27.7055184,30.9189774 27.6559892,30.858681 C27.60646,30.7983846 27.5235537,30.7682369 27.4072678,30.7682369 L27.213459,30.7682369 L27.213459,31.469179 Z M26.7483176,30.4258412 L27.5623149,30.4258412 C27.6807543,30.4258412 27.7803495,30.4457602 27.8611036,30.4855989 C27.9418577,30.5254376 28.0069984,30.5776578 28.0565276,30.6422611 C28.1060568,30.7068644 28.141588,30.7806187 28.1631225,30.8635262 C28.1846569,30.9464338 28.195424,31.0309552 28.195424,31.1170929 C28.195424,31.2355322 28.1776583,31.3388959 28.1421265,31.4271871 C28.1065947,31.5154782 28.0570663,31.5876175 27.9935397,31.643607 C27.9300131,31.6995965 27.8530287,31.741588 27.7625841,31.7695828 C27.6721395,31.7975775 27.5720059,31.8115747 27.4621803,31.8115747 L27.213459,31.8115747 L27.213459,32.7321669 L26.7483176,32.7321669 L26.7483176,30.4258412 Z M29.8347241,30.4258412 L29.8347241,30.8069987 L29.0110363,30.8069987 L29.0110363,31.3496635 L29.7862719,31.3496635 L29.7862719,31.730821 L29.0110363,31.730821 L29.0110363,32.3510094 L29.8670256,32.3510094 L29.8670256,32.7321669 L28.545895,32.7321669 L28.545895,30.4258412 L29.8347241,30.4258412 Z" id="Tobacco-Pipe" fill="#444444"></path>
                <rect id="Rectangle-15" fill="#444444" x="16.8506057" y="36.0161507" width="6.29878869" height="1"></rect>
            </g>
            <path d="M70.312,32.32 L66.928,24.4 L69.628,24.4 L71.374,29.17 L71.554,30.538 L71.644,30.538 L71.842,29.134 L73.552,24.4 L75.982,24.4 L72.58,32.302 L72.58,37 L70.312,37 L70.312,32.32 Z M81.121,34.156 L78.151,34.156 L77.413,37 L75.163,37 L78.817,24.31 L80.599,24.31 L84.271,37 L81.895,37 L81.121,34.156 Z M78.637,32.284 L80.725,32.284 L80.005,29.35 L79.717,27.37 L79.645,27.37 L79.339,29.368 L78.637,32.284 Z M88.492,30.808 L87.664,28.594 L87.574,28.594 L87.862,30.772 L87.862,37 L85.72,37 L85.72,24.31 L87.466,24.31 L91.084,30.646 L91.858,32.824 L91.966,32.824 L91.678,30.682 L91.678,24.4 L93.82,24.4 L93.82,37.09 L92.074,37.09 L88.492,30.808 Z M96.115,24.4 C96.3310011,24.3639998 96.5739986,24.3370001 96.844,24.319 C97.1140013,24.3009999 97.3899986,24.2830001 97.672,24.265 C97.9540014,24.2469999 98.2269987,24.235 98.491,24.229 C98.7550013,24.223 98.988999,24.22 99.193,24.22 C100.189005,24.22 101.019997,24.3729985 101.686,24.679 C102.352003,24.9850015 102.885998,25.4169972 103.288,25.975 C103.690002,26.5330028 103.974999,27.2019961 104.143,27.982 C104.311001,28.7620039 104.395,29.6319952 104.395,30.592 C104.395,31.4680044 104.314001,32.304996 104.152,33.103 C103.989999,33.901004 103.705002,34.602997 103.297,35.209 C102.888998,35.815003 102.337003,36.2979982 101.641,36.658 C100.944997,37.0180018 100.069005,37.198 99.013,37.198 C98.8569992,37.198 98.6470013,37.1920001 98.383,37.18 C98.1189987,37.1679999 97.8430014,37.1530001 97.555,37.135 C97.2669986,37.1169999 96.9910013,37.0990001 96.727,37.081 C96.4629987,37.0629999 96.2590007,37.0420001 96.115,37.018 L96.115,24.4 Z M99.427,26.308 C99.234999,26.308 99.040001,26.311 98.842,26.317 C98.643999,26.323 98.4910005,26.3379999 98.383,26.362 L98.383,35.038 C98.4190002,35.0500001 98.4819995,35.059 98.572,35.065 C98.6620004,35.071 98.7579995,35.077 98.86,35.083 C98.9620005,35.089 99.0579995,35.095 99.148,35.101 C99.2380004,35.107 99.3009998,35.11 99.337,35.11 C99.8770027,35.11 100.320998,34.9840013 100.669,34.732 C101.017002,34.4799987 101.289999,34.1440021 101.488,33.724 C101.686001,33.3039979 101.824,32.8210027 101.902,32.275 C101.98,31.7289973 102.019,31.156003 102.019,30.556 C102.019,30.0039972 101.986,29.4700026 101.92,28.954 C101.854,28.4379974 101.728001,27.985002 101.542,27.595 C101.355999,27.2049981 101.092002,26.8930012 100.75,26.659 C100.407998,26.4249988 99.9670027,26.308 99.427,26.308 Z M106.132,30.7 C106.132,28.5639893 106.497996,26.9380056 107.23,25.822 C107.962004,24.7059944 109.077992,24.148 110.578,24.148 C111.358004,24.148 112.029997,24.3009985 112.594,24.607 C113.158003,24.9130015 113.619998,25.3509972 113.98,25.921 C114.340002,26.4910029 114.606999,27.180996 114.781,27.991 C114.955001,28.8010041 115.042,29.703995 115.042,30.7 C115.042,32.8360107 114.667004,34.4619944 113.917,35.578 C113.166996,36.6940056 112.054007,37.252 110.578,37.252 C109.785996,37.252 109.111003,37.0990015 108.553,36.793 C107.994997,36.4869985 107.536002,36.0490029 107.176,35.479 C106.815998,34.9089972 106.552001,34.2190041 106.384,33.409 C106.215999,32.598996 106.132,31.696005 106.132,30.7 Z M108.508,30.7 C108.508,31.3360032 108.544,31.9269973 108.616,32.473 C108.688,33.0190027 108.807999,33.489998 108.976,33.886 C109.144001,34.282002 109.356999,34.5939989 109.615,34.822 C109.873001,35.0500011 110.193998,35.164 110.578,35.164 C111.274003,35.164 111.795998,34.8100035 112.144,34.102 C112.492002,33.3939965 112.666,32.2600078 112.666,30.7 C112.666,30.0879969 112.63,29.5090027 112.558,28.963 C112.486,28.4169973 112.369001,27.943002 112.207,27.541 C112.044999,27.138998 111.832001,26.8210012 111.568,26.587 C111.303999,26.3529988 110.974002,26.236 110.578,26.236 C109.197993,26.236 108.508,27.7239851 108.508,30.7 Z M122.611,24.4 L124.753,24.4 L124.753,32.572 C124.753,34.2040082 124.420003,35.3859963 123.754,36.118 C123.087997,36.8500037 122.167006,37.216 120.991,37.216 C119.610993,37.216 118.600003,36.8590036 117.958,36.145 C117.315997,35.4309964 116.995,34.3420073 116.995,32.878 L116.995,24.4 L119.263,24.4 L119.263,32.482 C119.263,33.4660049 119.394999,34.1529981 119.659,34.543 C119.923001,34.933002 120.360997,35.128 120.973,35.128 C121.561003,35.128 121.980999,34.9210021 122.233,34.507 C122.485001,34.0929979 122.611,33.4180047 122.611,32.482 L122.611,24.4 Z M126.796,35.83 C126.796,35.3859978 126.912999,35.0500011 127.147,34.822 C127.381001,34.5939989 127.689998,34.48 128.074,34.48 C128.494002,34.48 128.817999,34.5939989 129.046,34.822 C129.274001,35.0500011 129.388,35.3859978 129.388,35.83 C129.388,36.2620022 129.271001,36.5979988 129.037,36.838 C128.802999,37.0780012 128.482002,37.198 128.074,37.198 C127.677998,37.198 127.366001,37.0780012 127.138,36.838 C126.909999,36.5979988 126.796,36.2620022 126.796,35.83 Z M138.271,36.496 C137.958998,36.7600013 137.542003,36.9519994 137.02,37.072 C136.497997,37.1920006 135.979003,37.252 135.463,37.252 C134.814997,37.252 134.212003,37.1410011 133.654,36.919 C133.095997,36.6969989 132.607002,36.3280026 132.187,35.812 C131.766998,35.2959974 131.437001,34.6180042 131.197,33.778 C130.956999,32.9379958 130.837,31.9060061 130.837,30.682 C130.837,29.4099936 130.971999,28.3540042 131.242,27.514 C131.512001,26.6739958 131.865998,26.0050025 132.304,25.507 C132.742002,25.0089975 133.242997,24.658001 133.807,24.454 C134.371003,24.249999 134.940997,24.148 135.517,24.148 C136.105003,24.148 136.617998,24.1959995 137.056,24.292 C137.494002,24.3880005 137.850999,24.4959994 138.127,24.616 L137.677,26.614 C137.448999,26.4939994 137.182002,26.4010003 136.876,26.335 C136.569998,26.2689997 136.207002,26.236 135.787,26.236 C134.958996,26.236 134.323002,26.5959964 133.879,27.316 C133.434998,28.0360036 133.213,29.1639923 133.213,30.7 C133.213,31.3600033 133.263999,31.9629973 133.366,32.509 C133.468001,33.0550027 133.629999,33.525998 133.852,33.922 C134.074001,34.318002 134.355998,34.6239989 134.698,34.84 C135.040002,35.0560011 135.450998,35.164 135.931,35.164 C136.351002,35.164 136.710998,35.1070006 137.011,34.993 C137.311001,34.8789994 137.580999,34.7440008 137.821,34.588 L138.271,36.496 Z M139.234,30.7 C139.234,28.5639893 139.599996,26.9380056 140.332,25.822 C141.064004,24.7059944 142.179992,24.148 143.68,24.148 C144.460004,24.148 145.131997,24.3009985 145.696,24.607 C146.260003,24.9130015 146.721998,25.3509972 147.082,25.921 C147.442002,26.4910029 147.708999,27.180996 147.883,27.991 C148.057001,28.8010041 148.144,29.703995 148.144,30.7 C148.144,32.8360107 147.769004,34.4619944 147.019,35.578 C146.268996,36.6940056 145.156007,37.252 143.68,37.252 C142.887996,37.252 142.213003,37.0990015 141.655,36.793 C141.096997,36.4869985 140.638002,36.0490029 140.278,35.479 C139.917998,34.9089972 139.654001,34.2190041 139.486,33.409 C139.317999,32.598996 139.234,31.696005 139.234,30.7 Z M141.61,30.7 C141.61,31.3360032 141.646,31.9269973 141.718,32.473 C141.79,33.0190027 141.909999,33.489998 142.078,33.886 C142.246001,34.282002 142.458999,34.5939989 142.717,34.822 C142.975001,35.0500011 143.295998,35.164 143.68,35.164 C144.376003,35.164 144.897998,34.8100035 145.246,34.102 C145.594002,33.3939965 145.768,32.2600078 145.768,30.7 C145.768,30.0879969 145.732,29.5090027 145.66,28.963 C145.588,28.4169973 145.471001,27.943002 145.309,27.541 C145.146999,27.138998 144.934001,26.8210012 144.67,26.587 C144.405999,26.3529988 144.076002,26.236 143.68,26.236 C142.299993,26.236 141.61,27.7239851 141.61,30.7 Z" id="YANDOU.CO" fill="#FFFFFF"></path>
        </g>
    </g>
</svg>