<?xml version="1.0" encoding="UTF-8"?>
<svg width="180px" height="60px" viewBox="0 0 180 60" version="1.1" xmlns="http://www.w3.org/2000/svg" xmlns:xlink="http://www.w3.org/1999/xlink">
    <!-- Generator: Sketch 54.1 (76490) - https://sketchapp.com -->
    <title>编组 19</title>
    <desc>Created with Sketch.</desc>
    <defs>
        <path d="M3,0 L177,0 C178.656854,-3.04359188e-16 180,1.34314575 180,3 L180,57 C180,58.6568542 178.656854,60 177,60 L3,60 C1.34314575,60 2.02906125e-16,58.6568542 0,57 L0,3 C-2.02906125e-16,1.34314575 1.34314575,3.04359188e-16 3,0 Z" id="path-1"></path>
        <polygon id="path-3" points="2.55295519e-05 0.116738129 37.5401848 0.116738129 37.5401848 37.9270353 2.55295519e-05 37.9270353"></polygon>
    </defs>
    <g id="页面1" stroke="none" stroke-width="1" fill="none" fill-rule="evenodd">
        <g id="编组-19">
            <g id="编组-18">
                <g id="编组-6">
                    <g id="编组-4">
                        <g id="编组-5">
                            <g id="位图">
                                <mask id="mask-2" fill="white">
                                    <use xlink:href="#path-1"></use>
                                </mask>
                                <use id="蒙版" fill="#187BEE" xlink:href="#path-1"></use>
                            </g>
                        </g>
                    </g>
                </g>
            </g>
            <g id="编组-15" opacity="0.900000036" transform="translate(43.000000, 11.000000)">
                <g id="编组" transform="translate(0.816327, 0.000000)">
                    <path d="M44.0594191,29.5636259 C44.1506781,29.5636259 44.2184815,29.6051945 44.2655209,29.6882026 C44.3008965,29.7801182 44.2920526,29.8602861 44.2361693,29.9254791 L41.0026277,34.1670234 C40.9290565,34.2678466 40.8966288,34.3835157 40.9143166,34.5051232 C40.9290565,34.6237614 40.9878878,34.7216154 41.0909387,34.795845 C41.167586,34.8699456 41.2617929,34.9026066 41.3618958,34.9026066 L45.4258686,34.9026066 C45.5495553,34.9026066 45.6555541,34.861038 45.7409172,34.7720916 C45.8293563,34.6861143 45.8763957,34.5792237 45.8763957,34.4516779 C45.8763957,34.3330396 45.8293563,34.226278 45.7409172,34.14327 C45.6555541,34.0602619 45.5495553,34.012755 45.4258686,34.012755 L42.7283453,34.012755 C42.6282424,34.012755 42.557491,33.9711864 42.5309593,33.8881783 C42.4809719,33.7962627 42.4839199,33.7160947 42.5486471,33.6509018 L45.761553,29.4301417 C45.8352523,29.3352569 45.8763957,29.2344337 45.8763957,29.1334815 C45.8763957,29.0060647 45.8293563,28.9021433 45.7409172,28.8072585 C45.6555541,28.7212812 45.5495553,28.6737743 45.4258686,28.6737743 L41.3618958,28.6737743 C41.2323132,28.6737743 41.1263143,28.7212812 41.0438993,28.8072585 C40.961356,28.8962049 40.9202126,29.0030955 40.9202126,29.124703 C40.9202126,29.2433413 40.961356,29.3471336 41.0438993,29.4331109 C41.1263143,29.5220573 41.2323132,29.5636259 41.3618958,29.5636259 L44.0594191,29.5636259 Z" id="Fill-1" fill="#FFFFFF"></path>
                    <path d="M52.0459773,29.1098054 C52.0459773,28.988198 52.0017577,28.8873748 51.9193427,28.8042377 C51.8369276,28.7212296 51.7368247,28.6738517 51.6189058,28.6738517 C51.4865033,28.6738517 51.3774283,28.7152912 51.2950133,28.7984284 C51.2155462,28.8814364 51.1742746,28.9852288 51.1742746,29.1008979 L51.1742746,30.8152791 C51.1742746,30.9636092 51.1183913,31.0881859 51.0152122,31.189009 C50.9062654,31.2928014 50.7825787,31.3432775 50.6412042,31.3432775 L48.2912853,31.3432775 C48.1734946,31.3432775 48.1734946,32.2331292 48.2912853,32.2331292 L50.6412042,32.2331292 C50.7825787,32.2331292 50.9062654,32.2894146 51.0152122,32.3961761 C51.1183913,32.5059068 51.1742746,32.6304835 51.1742746,32.7788136 L51.1742746,34.4725396 C51.1742746,34.5911779 51.2155462,34.6949702 51.2950133,34.7779783 C51.3774283,34.8609864 51.4865033,34.9025549 51.6189058,34.9025549 C51.7368247,34.9025549 51.8369276,34.8639556 51.9193427,34.7809475 C52.0017577,34.6979394 52.0459773,34.6000854 52.0459773,34.4813181 L52.0459773,29.1098054 Z" id="Fill-3" fill="#FFFFFF"></path>
                    <path d="M46.7451633,29.1098054 C46.7451633,28.988198 46.7893829,28.8873748 46.871798,28.8042377 C46.954213,28.7212296 47.0543159,28.6738517 47.1722349,28.6738517 C47.3046373,28.6738517 47.4137123,28.7152912 47.4961274,28.7984284 C47.5755944,28.8814364 47.6168661,28.9852288 47.6168661,29.1008979 L47.6168661,30.8152791 C47.6168661,30.9636092 47.6727494,31.0881859 47.7759284,31.189009 C47.8848752,31.2928014 48.0085619,31.3432775 48.1499365,31.3432775 L50.4998553,31.3432775 C50.617646,31.3432775 50.617646,32.2331292 50.4998553,32.2331292 L48.1499365,32.2331292 C48.0085619,32.2331292 47.8848752,32.2894146 47.7759284,32.3961761 C47.6727494,32.5059068 47.6168661,32.6304835 47.6168661,32.7788136 L47.6168661,34.4725396 C47.6168661,34.5911779 47.5755944,34.6949702 47.4961274,34.7779783 C47.4137123,34.8609864 47.3046373,34.9025549 47.1722349,34.9025549 C47.0543159,34.9025549 46.954213,34.8639556 46.871798,34.7809475 C46.7893829,34.6979394 46.7451633,34.6000854 46.7451633,34.4813181 L46.7451633,29.1098054 Z" id="Fill-5" fill="#FFFFFF"></path>
                    <path d="M54.4018818,29.1098054 C54.4018818,28.988198 54.3547143,28.8873748 54.2722992,28.8042377 C54.1898841,28.7212296 54.0838853,28.6738517 53.9543026,28.6738517 C53.830616,28.6738517 53.7246171,28.7212296 53.6420739,28.8042377 C53.5596588,28.8873748 53.5183872,28.988198 53.5183872,29.1098054 L53.5183872,34.4813181 C53.5183872,34.6000854 53.5596588,34.6979394 53.6420739,34.7809475 C53.7246171,34.8639556 53.830616,34.9025549 53.9543026,34.9025549 C54.0838853,34.9025549 54.1898841,34.8639556 54.2722992,34.7809475 C54.3547143,34.6979394 54.4018818,34.6000854 54.4018818,34.4813181 L54.4018818,29.1098054 Z" id="Fill-7" fill="#FFFFFF"></path>
                    <path d="M60.2916751,31.7288584 C60.2916751,31.6577271 60.3299988,31.6072509 60.4035699,31.5745899 C60.9071606,31.3194982 61.1663259,30.9309224 61.1751698,30.4060222 C61.1751698,30.2784764 61.1604299,30.1509306 61.1338982,30.0233847 C61.1073664,29.8958389 61.060327,29.7801698 61.0013676,29.6704391 C60.8540971,29.3826864 60.6126197,29.1454098 60.2828312,28.9555111 C59.9471468,28.7716799 59.5141794,28.6738259 58.9841851,28.6738259 L57.5323726,28.6738259 C57.3467785,28.6738259 57.1670803,28.709327 57.0022502,28.7746491 C56.8372919,28.839842 56.6900214,28.9318868 56.5692827,29.050525 C56.445596,29.1661941 56.3484411,29.2996783 56.2748699,29.4508485 C56.2011706,29.605117 56.1688711,29.7682931 56.1688711,29.9402476 L56.1688711,33.6361075 C56.1688711,33.8140003 56.2011706,33.9742072 56.2748699,34.1284757 C56.3425451,34.2826151 56.4397001,34.4160993 56.5604388,34.5317684 C56.6782295,34.6474375 56.8166561,34.7394822 56.9845623,34.8046751 C57.1436247,34.8699972 57.3143508,34.9025291 57.4940489,34.9025291 L59.2785979,34.9025291 C59.7204093,34.9025291 60.0885214,34.8046751 60.3829341,34.605998 C60.6774751,34.4101609 60.8894728,34.166946 61.0220034,33.8793224 C61.1250542,33.6656702 61.1751698,33.4194861 61.1751698,33.1495485 C61.1751698,32.9063336 61.1162103,32.6631187 61.0013676,32.4228729 C60.9484322,32.3339265 60.8717849,32.2420109 60.7598901,32.1411877 C60.6509433,32.0432046 60.5272566,31.9542582 60.397674,31.8801577 C60.3241028,31.8474967 60.2916751,31.7970205 60.2916751,31.7288584 L60.2916751,31.7288584 Z M59.2756499,32.2331033 C59.5613469,32.2331033 59.7910325,32.2893887 59.9648347,32.390341 C60.1385087,32.4911642 60.2445076,32.6276176 60.2916751,32.7847261 L60.2916751,33.1495485 C60.2916751,33.2978786 60.2651434,33.4194861 60.212208,33.5174692 C60.1444047,33.6597319 60.0354579,33.7813393 59.8763955,33.8793224 C59.7204093,33.9742072 59.5230233,34.0215851 59.2844938,34.0126775 L57.8149935,34.0126775 C57.6059437,34.0126775 57.4262456,33.9445154 57.2791033,33.7991544 C57.1259369,33.6597319 57.0522375,33.4877773 57.0522375,33.2949095 L57.0522375,30.2814456 C57.0522375,30.0885777 57.1318328,29.9195924 57.2879472,29.7772006 C57.4439334,29.6377781 57.6324755,29.5636775 57.8474212,29.5636775 L58.9900811,29.5636775 C59.3257654,29.5636775 59.5937746,29.6140246 59.7939804,29.7059402 C59.9912383,29.8039233 60.1355608,29.9255307 60.218104,30.0677934 C60.2651434,30.174684 60.2916751,30.2903531 60.2916751,30.4119606 C60.2916751,30.5335681 60.2651434,30.6522063 60.2092601,30.7827213 C60.1296648,30.9487375 60.0059781,31.0822217 59.841148,31.186014 C59.6702937,31.2929047 59.458296,31.3432517 59.2109227,31.3432517 L57.9740558,31.3432517 C57.8533171,31.3432517 57.7532142,31.3907587 57.667723,31.4737667 C57.5853079,31.5567748 57.5499323,31.6636654 57.5499323,31.7940513 C57.5499323,31.918628 57.5853079,32.0255186 57.667723,32.1085267 C57.7532142,32.1915348 57.8533171,32.2331033 57.9740558,32.2331033 L59.2756499,32.2331033 Z" id="Fill-9" fill="#FFFFFF"></path>
                    <path d="M63.5310615,29.1098054 C63.5310615,28.988198 63.4838939,28.8873748 63.4014788,28.8042377 C63.3190638,28.7212296 63.2130649,28.6738517 63.0834823,28.6738517 C62.9597956,28.6738517 62.8537968,28.7212296 62.7712535,28.8042377 C62.6888385,28.8873748 62.6475668,28.988198 62.6475668,29.1098054 L62.6475668,34.4813181 C62.6475668,34.6000854 62.6888385,34.6979394 62.7712535,34.7809475 C62.8537968,34.8639556 62.9597956,34.9025549 63.0834823,34.9025549 C63.2130649,34.9025549 63.3190638,34.8639556 63.4014788,34.7809475 C63.4838939,34.6979394 63.5310615,34.6000854 63.5310615,34.4813181 L63.5310615,29.1098054 Z" id="Fill-11" fill="#FFFFFF"></path>
                    <path d="M66.1814556,34.7453689 C66.1814556,34.6296998 66.1342881,34.5259075 66.051873,34.4398011 C65.96651,34.3567931 65.8634591,34.3094152 65.7456684,34.3094152 C65.6160857,34.3094152 65.5099587,34.3567931 65.4275436,34.4398011 C65.3392326,34.5259075 65.297961,34.6296998 65.297961,34.7453689 L65.297961,34.7542765 C65.297961,34.8788531 65.3392326,34.9856147 65.4275436,35.0686227 C65.5099587,35.1576982 65.6160857,35.1991377 65.7456684,35.1991377 C65.8634591,35.1991377 65.96651,35.1576982 66.051873,35.0686227 C66.1342881,34.9856147 66.1814556,34.8788531 66.1814556,34.7542765 L66.1814556,34.7453689 Z" id="Fill-13" fill="#FFFFFF"></path>
                    <path d="M71.4969839,29.6051428 C71.3585573,29.4153732 71.196547,29.249228 71.014029,29.1098054 C70.8284349,28.9703829 70.6223331,28.8636213 70.4014915,28.7895208 C70.1806499,28.7152912 69.9450684,28.6738517 69.700643,28.6738517 L69.6741113,28.6738517 L69.5946442,28.6738517 C69.135145,28.6885686 68.749345,28.7835825 68.4284005,28.9614753 C68.104508,29.1424665 67.8423948,29.3767738 67.636293,29.6703358 C67.4330111,29.9580885 67.2857406,30.2785022 67.1974296,30.6284787 C67.1061706,30.9814243 67.064899,31.3492159 67.064899,31.7288842 L67.064899,31.8801835 C67.0737429,32.3339523 67.1385983,32.7462817 67.259337,33.1170424 C67.3771278,33.4937415 67.5566978,33.8169953 67.8011232,34.0928713 C68.0219648,34.3509321 68.2929219,34.5555477 68.6169426,34.6949702 C68.9378871,34.8343928 69.3148431,34.9025549 69.7476824,34.9025549 C69.968524,34.9025549 70.174754,34.8758323 70.3690638,34.8195469 C70.5635019,34.7631324 70.7401239,34.6890319 70.9080302,34.5971162 C71.0876002,34.4931948 71.2466625,34.365649 71.3850891,34.2174479 C71.5235156,34.0691178 71.6383584,33.9118801 71.7266694,33.7427657 C71.7767849,33.6360042 71.7856289,33.5292427 71.7502532,33.4195119 C71.7119295,33.306812 71.6442543,33.223804 71.5382555,33.1644203 C71.4263607,33.1170424 71.3202337,33.1081349 71.2112868,33.1406668 C71.0993921,33.1792662 71.0228729,33.2474283 70.9727574,33.354319 C70.8697065,33.5500269 70.7135921,33.7013262 70.5015944,33.8229337 C70.3926476,33.8792191 70.2778048,33.9237569 70.1511702,33.9623563 C70.0245355,33.9978574 69.889057,34.0127033 69.7476824,34.0127033 C69.4444258,34.0127033 69.1911564,33.9712638 68.9791587,33.8821883 C68.7670329,33.7962111 68.5963068,33.6686652 68.4578802,33.50252 C68.2929219,33.3216579 68.1692353,33.0903198 68.0868202,32.8114746 C68.0044051,32.5355987 67.9572376,32.215314 67.9483936,31.8623684 L67.9483936,31.7318534 C67.9483936,31.432224 67.9749254,31.1475695 68.0367047,30.8895087 C68.0956641,30.6284787 68.195767,30.3971405 68.3341936,30.1923959 C68.4637762,30.014503 68.6345023,29.8661729 68.8466281,29.753473 C69.0586258,29.6437422 69.3148431,29.5784202 69.6239957,29.5635743 L69.700643,29.5635743 C69.8566293,29.5635743 70.0038997,29.5902969 70.1423263,29.6378039 C70.2807528,29.6851817 70.4044395,29.7445654 70.5192823,29.8186659 C70.7401239,29.9699652 70.8873944,30.1805191 70.9727574,30.4445183 C70.9992891,30.5542491 71.0582486,30.6373862 71.1612995,30.69961 C71.2614024,30.7589937 71.3674012,30.7738396 71.482244,30.7411786 C71.5941388,30.7114867 71.67963,30.649263 71.7414093,30.5453415 C71.8003687,30.4474875 71.8149804,30.340726 71.7826809,30.2250569 C71.7266694,30.0026263 71.6295145,29.7949125 71.4969839,29.6051428" id="Fill-15" fill="#FFFFFF"></path>
                    <path d="M86.2067273,29.0712448 C86.2067273,28.9555757 86.1654557,28.8577217 86.0918845,28.7834921 C86.0183134,28.7093916 85.9298742,28.667823 85.8327193,28.6500079 C85.7326164,28.6352911 85.6354614,28.6500079 85.5381783,28.6975148 C85.4380754,28.7420526 85.3704002,28.8131839 85.3232327,28.9140071 L83.2618306,33.3187275 L81.2004286,28.8874135 C81.1444171,28.7834921 81.070846,28.7212683 80.973691,28.6826689 C80.8735881,28.6470387 80.776305,28.6411003 80.6791501,28.6648538 C80.5849432,28.6886073 80.5025281,28.7331451 80.4288288,28.8042764 C80.3552576,28.8725676 80.316934,28.9615141 80.316934,29.0712448 L80.316934,34.484326 C80.316934,34.6059334 80.3582056,34.7067566 80.4465166,34.7869246 C80.5289317,34.8639943 80.6349305,34.9025937 80.7645132,34.9025937 C80.8823039,34.9025937 80.9854829,34.8639943 81.070846,34.7869246 C81.153261,34.7067566 81.2004286,34.6059334 81.2004286,34.484326 L81.2004286,31.2453332 C81.2004286,31.1623251 81.2240124,31.1060397 81.2798957,31.0822862 C81.3329592,31.0615019 81.3799986,31.094163 81.4153743,31.1801402 L82.8789787,34.2945564 C82.9261463,34.3924104 82.9938215,34.4635417 83.0793127,34.5051103 C83.1823635,34.5555864 83.2942583,34.5585556 83.4032052,34.516987 C83.5151,34.4813568 83.594567,34.4072563 83.6446826,34.2945564 L85.108287,31.1801402 C85.1436627,31.094163 85.1848061,31.0615019 85.2408176,31.079317 C85.2967009,31.0971321 85.3232327,31.1534176 85.3232327,31.2453332 L85.3232327,34.484326 C85.3232327,34.6059334 85.3645043,34.7067566 85.4469194,34.7869246 C85.5294626,34.8639943 85.6354614,34.9025937 85.7650441,34.9025937 C85.8887308,34.9025937 85.9947296,34.8639943 86.0771447,34.7869246 C86.1595597,34.7067566 86.2067273,34.6059334 86.2067273,34.484326 L86.2067273,29.0712448 Z" id="Fill-17" fill="#FFFFFF"></path>
                    <path d="M75.911022,29.5489736 C74.6931247,29.5489736 73.7023495,30.5468777 73.7023495,31.7735382 C73.7023495,33.0001986 74.6931247,33.9981027 75.911022,33.9981027 C77.1289193,33.9981027 78.1196945,33.0001986 78.1196945,31.7735382 C78.1196945,30.5468777 77.1289193,29.5489736 75.911022,29.5489736 M75.911022,34.8879543 C74.2060683,34.8879543 72.8188549,33.4907594 72.8188549,31.7735382 C72.8188549,30.0563169 74.2060683,28.659122 75.911022,28.659122 C77.6159757,28.659122 79.0031891,30.0563169 79.0031891,31.7735382 C79.0031891,33.4907594 77.6159757,34.8879543 75.911022,34.8879543" id="Fill-19" fill="#FFFFFF"></path>
                    <path d="M79.6336708,10.1253315 L83.5751104,10.1253315 C85.44028,10.1253315 86.9522055,11.6481358 86.9522055,13.5267258 L86.9522055,21.9110568 C86.9522055,22.8104615 86.2284141,23.5394608 85.3355629,23.5394608 L83.8305587,23.5394608 C82.8351693,23.5394608 82.2259643,22.4393134 82.7490372,21.586383 L82.7490372,21.586383 C82.9806453,21.2087802 83.3899008,20.9789911 83.8305587,20.9789911 L84.2355845,20.9789911 L84.2355845,13.847785 C84.2355845,13.219867 83.7303276,12.7109747 83.1068954,12.7109747 L79.6380287,12.7109747 C79.3342593,12.7109747 79.0882958,12.9593534 79.0889367,13.2653085 L79.1140585,23.6543553 C79.1140585,24.4099481 78.5058789,25.0225038 77.7556839,25.0225038 C77.0054889,25.0225038 76.3974375,24.4099481 76.3974375,23.6543553 L76.3723157,13.2625975 C76.3715466,12.9576752 76.1259677,12.7109747 75.8232237,12.7109747 L72.3516653,12.7109747 C71.7283613,12.7109747 71.2229762,13.219867 71.2229762,13.847785 L71.2229762,22.3675366 C71.2229762,23.1231295 70.6147966,23.7356851 69.8647298,23.7356851 L69.8647298,23.7356851 C69.1145348,23.7356851 68.5063552,23.1231295 68.5063552,22.3675366 L68.5063552,13.4567563 C68.5063552,11.6168948 69.9872629,10.1253315 71.8139807,10.1253315 L75.8248899,10.1253315 C76.1264804,10.1253315 76.3710339,9.8791474 76.3710339,9.57538693 L76.3710339,7.18609723 C76.3710339,6.87265464 76.1132786,6.62272678 75.8024597,6.63666903 C74.5071461,6.69527815 73.1928629,6.75349998 71.8598665,6.81172181 C70.7730899,6.85948695 71.5231567,6.88453138 70.4917508,6.92842367 C69.7830837,6.95850279 69.1910539,6.38738665 69.1909257,5.67297508 C69.1910539,4.98618984 69.7223299,4.42785409 70.3974156,4.401906 C74.0229095,4.26287072 81.2558249,3.84950863 84.9533518,3.70027484 C85.6534313,3.67200304 86.2345664,4.23653535 86.2345664,4.94216845 L86.2345664,4.94216845 C86.2346946,5.6084276 85.7132879,6.15617755 85.0525575,6.18432026 L79.6040629,6.48227145 C79.3143925,6.49815013 79.087655,6.73929953 79.087655,7.03144145 L79.087655,9.57538693 C79.087655,9.8791474 79.3320803,10.1253315 79.6336708,10.1253315" id="Fill-21" fill="#FFFFFF"></path>
                    <path d="M49.5591315,6.98748461 L51.1111751,6.98748461 C51.8199703,6.98748461 52.3946969,6.40875186 52.3946969,5.69472758 C52.3946969,4.9807033 51.8199703,4.40197055 51.1111751,4.40197055 L46.0097723,4.40197055 L46.0724487,4.30256743 C46.46517,3.67968419 46.2823957,2.85399276 45.6639623,2.45831668 C45.0455288,2.06276969 44.2258642,2.24685912 43.8330148,2.86974235 L41.6253677,6.37002337 C41.2325183,6.99277751 41.4154208,7.81846894 42.033726,8.21414502 C42.6521594,8.6098211 43.4719522,8.42560258 43.8648016,7.80284845 L44.3790306,6.98748461 L45.5539901,6.98748461 C45.9254346,6.98748461 46.2202319,7.30234725 46.1983144,7.675819 L45.9833687,11.3507655 C45.961323,11.7275937 45.6515295,12.0219303 45.2766243,12.0219303 L43.2813594,12.0219303 C42.9800253,12.0219303 42.6953536,12.1613528 42.5095032,12.4001785 L42.3699231,12.5793623 C41.7370061,13.3921443 42.3118608,14.5823999 43.3376272,14.5823999 L44.6032047,14.5823999 C44.9478612,14.5823999 45.1842117,14.9322473 45.0577052,15.2551138 L41.8827385,23.3562104 C41.5064234,24.2190812 42.1339571,25.1869062 43.069618,25.1869062 C43.6361415,25.1869062 44.149986,24.8525502 44.3828758,24.3322975 L46.9109548,18.1465829 C46.9973432,17.9353836 47.2989336,17.9488094 47.3653271,18.1672381 C47.6582018,19.1306739 48.2310057,20.9709227 48.7469009,22.3717322 C48.9887629,23.0286965 49.6100161,23.464392 50.3139408,23.464392 C51.2066638,23.464392 51.8238155,22.5652456 51.5082543,21.7240627 L49.4085286,15.3284397 C49.2877899,14.9610354 49.5595161,14.5823999 49.9437779,14.5823999 L51.6233534,14.5823999 C52.0404274,14.5823999 52.3786753,14.2418474 52.3786753,13.8216432 L52.3786753,12.9348899 C52.3786753,12.4306449 51.9727522,12.0219303 51.4721095,12.0219303 L49.5027355,12.0219303 C49.2003761,12.0219303 48.9553098,11.7749716 48.9553098,11.4704365 L48.9553098,7.59565102 C48.9553098,7.25974591 49.2256261,6.98748461 49.5591315,6.98748461" id="Fill-23" fill="#FFFFFF"></path>
                    <g transform="translate(0.093320, 0.000000)">
                        <polygon id="Fill-1" fill="#DBDBD9" points="18.0628269 17.6678736 16.3541282 19.8940386 17.3979267 21.9081633 19.1668026 19.5316306"></polygon>
                        <polygon id="Fill-2" fill="#CCCCCC" points="20.1602915 16.0188721 18.463634 18.2912585 20.3191475 21.43702 21.9794769 19.2289632"></polygon>
                        <g transform="translate(0.181251, 0.000000)">
                            <path d="M15.3152292,18.2774112 C15.4560247,18.528501 16.7405441,20.7823954 16.7405441,20.7823954 C17.0895331,20.8443643 18.0075758,21.1545946 18.2598077,21.0098291 C18.5735659,20.8266222 18.9930165,20.5637043 19.0839017,20.2033332 C19.1747869,19.840005 18.5618223,18.797333 18.377116,18.4634465 L13.8194528,10.4760128 C13.6347465,10.145212 13.367835,9.92960641 13.0276537,9.83215321 C12.6816006,9.73174299 12.3559712,9.77301275 12.0510207,9.95030557 C11.7576862,10.1215558 11.5612363,10.3785597 11.4760952,10.7300597 C11.3822741,11.0787313 11.4321844,11.4213603 11.6168907,11.7521612 L15.3152292,18.2774112 Z" id="Fill-3" fill="#FFFFFF"></path>
                            <path d="M22.3540203,25.0714546 C22.4948157,25.3225444 23.7793351,27.5764388 23.7793351,27.5764388 C24.1283241,27.6384077 25.0463668,27.948638 25.2985988,27.8038725 C25.612357,27.6206656 26.0591241,27.3636617 26.1226927,26.9973766 C26.2253215,26.4066148 25.6006134,25.5913764 25.4159071,25.2574899 L20.8582438,17.2700563 C20.6735375,16.9392554 20.406626,16.7236498 20.0664448,16.6261966 C19.7203917,16.5257864 19.3947623,16.5670562 19.0898118,16.744349 C18.7964772,16.9155992 18.6000273,17.1726031 18.5148862,17.5241031 C18.4210651,17.8727747 18.4709754,18.2154037 18.6556817,18.5462046 L22.3540203,25.0714546 Z" id="Fill-5" fill="#FFFFFF"></path>
                            <g>
                                <mask id="mask-4" fill="white">
                                    <use xlink:href="#path-3"></use>
                                </mask>
                                <g id="Clip-8"></g>
                                <path d="M18.7701179,2.47982385 C9.71402001,2.47982385 2.34631899,9.90053759 2.34631899,19.0217967 C2.34631899,28.1431844 9.71402001,35.5638982 18.7701179,35.5638982 C27.8262159,35.5638982 35.1939169,28.1431844 35.1939169,19.0217967 C35.1939169,9.90053759 27.8262159,2.47982385 18.7701179,2.47982385 M18.7701179,37.9270739 C8.42030997,37.9270739 2.55295519e-05,29.4462031 2.55295519e-05,19.0217967 C2.55295519e-05,8.59751893 8.42030997,0.116648133 18.7701179,0.116648133 C29.1199259,0.116648133 37.5402104,8.59751893 37.5402104,19.0217967 C37.5402104,29.4462031 29.1199259,37.9270739 18.7701179,37.9270739" id="Fill-7" fill="#FFFFFF" mask="url(#mask-4)"></path>
                            </g>
                            <path d="M20.7086917,12.2277533 L22.1194547,12.2277533 C22.1194547,12.2277533 21.4096055,13.1050892 21.2454505,13.3118237 L11.590557,25.9782964 C11.3588763,26.2826127 11.2737352,26.6193276 11.3177737,26.9796987 C11.3647481,27.3430269 11.5377108,27.638472 11.8427889,27.8659057 C12.0832773,28.0785542 12.3559329,28.1789644 12.6580752,28.1789644 L24.79125,28.1789644 C25.166662,28.1789644 25.4833561,28.048984 25.7502676,27.7860661 C26.0113073,27.5291907 26.1432951,27.2100894 26.1432951,26.8349331 C26.1432951,26.465691 26.0113073,26.1526322 25.7502676,25.8985854 C25.4833561,25.6504525 25.166662,25.5204721 24.79125,25.5204721 L16.7406335,25.5204721 L15.3739089,25.5204721 C15.3739089,25.5204721 16.0161048,24.6283511 16.2038746,24.4364017 L25.8031138,11.8259839 C26.028795,11.5395383 26.1432951,11.2440932 26.1432951,10.9399055 C26.1432951,10.5617922 26.0113073,10.2397338 25.7502676,9.97090188 C25.4833561,9.70219848 25.166662,9.569261 24.79125,9.569261 L12.6580752,9.569261 C12.2826631,9.569261 11.965969,9.70219848 11.713737,9.96203081 C11.4556333,10.2249487 11.3324532,10.5440501 11.3324532,10.9132923 C11.3324532,11.2677494 11.4556333,11.5778511 11.713737,11.834855 C11.965969,12.0977729 12.2826631,12.2277533 12.6580752,12.2277533 L20.7086917,12.2277533 Z" id="Fill-9" fill="#FFFFFF"></path>
                        </g>
                    </g>
                    <path d="M60.130139,18.6595418 C60.130139,19.8204929 59.2876597,20.7617243 58.2484352,20.7617243 C57.2092107,20.7617243 56.3667313,19.8204929 56.3667313,18.6595418 L56.3667313,10.6553955 C56.3667313,9.49444439 57.2092107,8.55321296 58.2484352,8.55321296 C59.2876597,8.55321296 60.130139,9.49444439 60.130139,10.6553955 L60.130139,18.6595418 Z M58.2484352,5.85809727 L58.2484352,5.85809727 C55.7122814,5.85809727 53.6562626,7.92890968 53.6562626,10.4833119 L53.6562626,18.8316254 C53.6562626,21.3860276 55.7122814,23.45684 58.2484352,23.45684 L58.2484352,23.45684 C60.784589,23.45684 62.8406078,21.3860276 62.8406078,18.8316254 L62.8406078,10.4833119 C62.8406078,7.92890968 60.784589,5.85809727 58.2484352,5.85809727 L58.2484352,5.85809727 Z" id="Fill-25" fill="#FFFFFF"></path>
                </g>
            </g>
        </g>
    </g>
</svg>