<?xml version="1.0" encoding="UTF-8"?>
<svg width="160px" height="160px" viewBox="0 0 160 160" version="1.1" xmlns="http://www.w3.org/2000/svg" xmlns:xlink="http://www.w3.org/1999/xlink">
    <!-- Generator: Sketch 47.1 (45422) - http://www.bohemiancoding.com/sketch -->
    <title>Artboard</title>
    <desc>Created with Sketch.</desc>
    <defs>
        <linearGradient x1="3.99330876%" y1="7.61605458%" x2="68.9554811%" y2="93.5612892%" id="linearGradient-1">
            <stop stop-color="#22DCE9" offset="0%"></stop>
            <stop stop-color="#00F8AF" offset="24.3124203%"></stop>
            <stop stop-color="#0875F5" offset="46.3010204%"></stop>
            <stop stop-color="#516BFC" offset="76.0881696%"></stop>
            <stop stop-color="#F33382" offset="100%"></stop>
        </linearGradient>
    </defs>
    <g id="Page-1" stroke="none" stroke-width="1" fill="none" fill-rule="evenodd">
        <g id="Artboard">
            <path d="M117.795199,106.695979 C115.646711,107.379069 113.845491,107.455392 112.15494,108.065974 C112.040456,109.016194 112.807501,110.805965 112.998308,111.527216 C112.998308,112.401112 112.998308,113.507794 113.269254,114.076399 C116.451917,114.076399 119.172826,110.15722 118.024167,106.695979 L117.795199,106.695979 Z M72.8524884,25 C72.9669726,25.0381614 73.0814569,25.0381614 73.1959412,25.0381614 C77.8363705,28.6520484 83.1675216,31.8881373 86.2738616,36.833858 C89.9907844,43.5693495 91.2959052,52.5868943 93.6352005,59.8528297 C94.5167295,63.8101695 94.0168148,66.8554512 94.0168148,70.3548539 C98.4282756,73.2856514 103.106866,78.0825425 105.789614,82.646649 C107.247381,85.8827378 106.327691,85.3866393 109.857622,85.8445764 C111.697003,86.2986974 114.303428,87.6686925 116.26111,86.9474416 C120.8214,86.4513431 125.576313,90.86662 124.465816,95.392565 C126.267035,99.0102681 121.897552,104.452087 120.210817,106.734141 C119.558257,112.515597 118.291297,114.267206 113.650868,116.434775 C111.349734,119.02212 109.701161,122.105563 107.323704,124.124302 C105.636969,126.215548 99.886042,128.72657 99.886042,129.982081 C102.492467,138.469182 79.2178141,135.118609 79.2178141,132.95104 C74.2682772,131.008623 68.9409423,129.638628 63.8005983,129.638628 C62.1901861,129.982081 61.1178501,130.668987 59.9653751,130.817816 C58.8167162,129.676789 60.2744826,128.154149 61.0415272,126.635324 C61.0033658,126.597162 60.9652044,126.559001 60.9652044,126.52084 C58.8548776,126.597162 57.206304,127.051283 55.3669233,127.280252 C52.6040361,126.749808 55.8248604,122.83063 56.6682279,121.647626 C56.6300665,121.609464 56.5919051,121.571303 56.5919051,121.536957 C54.7906858,121.34615 53.6763722,122.601661 52.5277133,122.410854 C51.4172158,120.392115 51.7225072,118.529837 52.2605833,116.056977 C52.2987447,115.942493 52.6421975,115.560878 52.6421975,115.026618 C50.7646554,114.305367 46.1623875,116.778228 47.887284,113.355148 C48.8451357,112.214121 50.1502565,111.260086 51.6843458,110.271705 C51.6843458,110.042736 51.6843458,109.813768 51.7225072,109.588615 C50.6883326,102.051734 50.2647408,92.2747766 52.680359,84.5890655 C52.7948433,84.3982584 53.0657894,83.9403213 53.2565965,83.2572318 C53.1039508,83.0282632 53.1039508,83.0282632 51.8369915,82.0780437 C49.4213733,79.8684972 47.4675083,77.8917354 45.2045358,75.4951979 C39.8733847,68.2636078 36,60.5015739 36,51.1405763 C36.26713,43.8746409 37.419605,36.9101808 42.1363572,30.5181421 C42.4416486,30.1746893 46.0097418,26.2936723 47.005755,28.2742503 C46.2768718,31.9644601 48.9214586,35.8073156 50.993624,38.3564988 C57.3207883,44.519569 63.0717151,49.7324197 64.0715444,58.8644488 C64.2241901,60.7687039 64.6058044,70.5074996 65.6819566,71.5760195 C66.4490012,71.1180824 67.2160459,70.6601453 68.0212519,70.2060243 C69.4370408,69.5191187 71.2802376,68.912352 73.1196183,68.3780921 C73.272264,67.8438321 71.8144976,64.1536223 71.5473676,63.2797257 C68.9027808,53.3463067 65.5636561,44.1379548 67.673983,33.6359305 C68.2883819,32.1171058 70.513193,25.7594124 72.8524884,25 L72.8524884,25 Z" id="Fill-1" fill="url(#linearGradient-1)"></path>
            <circle id="Oval" stroke="#E7E7E7" cx="80" cy="80" r="75"></circle>
        </g>
    </g>
</svg>